<svg width="23" height="26" viewBox="0 0 23 26" fill="none" xmlns="http://www.w3.org/2000/svg">
<path d="M22.4936 16.3062L20.125 13.9376V10.7998C20.1223 8.63141 19.3156 6.54105 17.8611 4.93291C16.4065 3.32478 14.4072 2.31312 12.25 2.09355V0.299805H10.5V2.09355C8.34275 2.31312 6.34354 3.32478 4.88895 4.93291C3.43436 6.54105 2.62771 8.63141 2.625 10.7998V13.9376L0.256375 16.3062C0.0922693 16.4702 4.95577e-05 16.6928 0 16.9248V19.5498C0 19.7819 0.0921872 20.0044 0.256282 20.1685C0.420376 20.3326 0.642936 20.4248 0.875 20.4248H7V21.1047C6.98097 22.2147 7.37223 23.2928 8.09881 24.1322C8.82539 24.9717 9.83619 25.5135 10.9375 25.6538C11.5458 25.7141 12.16 25.6465 12.7405 25.4552C13.3211 25.2639 13.8552 24.9532 14.3085 24.5431C14.7617 24.133 15.1242 23.6326 15.3724 23.074C15.6207 22.5154 15.7493 21.9111 15.75 21.2998V20.4248H21.875C22.1071 20.4248 22.3296 20.3326 22.4937 20.1685C22.6578 20.0044 22.75 19.7819 22.75 19.5498V16.9248C22.75 16.6928 22.6577 16.4702 22.4936 16.3062ZM14 21.2998C14 21.996 13.7234 22.6637 13.2312 23.156C12.7389 23.6482 12.0712 23.9248 11.375 23.9248C10.6788 23.9248 10.0111 23.6482 9.51884 23.156C9.02656 22.6637 8.75 21.996 8.75 21.2998V20.4248H14V21.2998ZM21 18.6748H1.75V17.2871L4.11862 14.9184C4.28273 14.7544 4.37495 14.5318 4.375 14.2998V10.7998C4.375 8.94329 5.1125 7.16281 6.42525 5.85006C7.73801 4.5373 9.51848 3.7998 11.375 3.7998C13.2315 3.7998 15.012 4.5373 16.3247 5.85006C17.6375 7.16281 18.375 8.94329 18.375 10.7998V14.2998C18.375 14.5318 18.4673 14.7544 18.6314 14.9184L21 17.2871V18.6748Z" fill="#181717"/>
</svg>
