<svg width="14" height="15" viewBox="0 0 14 15" fill="none" xmlns="http://www.w3.org/2000/svg">
<path d="M9.81358 14.5889C8.89135 14.5889 8.10535 14.2638 7.45557 13.6135C6.80579 12.9633 6.48068 12.1773 6.48024 11.2555C6.48024 10.3333 6.80535 9.54731 7.45557 8.89754C8.1058 8.24776 8.8918 7.92265 9.81358 7.9222C10.7358 7.9222 11.522 8.24731 12.1722 8.89754C12.8225 9.54776 13.1474 10.3338 13.1469 11.2555C13.1469 12.1778 12.8218 12.964 12.1716 13.6142C11.5214 14.2644 10.7354 14.5893 9.81358 14.5889ZM10.9302 12.8389L11.3969 12.3722L10.1469 11.1222V9.25554H9.48024V11.3889L10.9302 12.8389ZM1.81356 13.9222C1.44689 13.9222 1.13311 13.7918 0.872225 13.5309C0.611336 13.27 0.480669 12.956 0.480225 12.5889V3.25553C0.480225 2.88887 0.610892 2.57509 0.872225 2.3142C1.13356 2.05331 1.44734 1.92265 1.81356 1.9222H4.5969C4.71912 1.53331 4.95801 1.21398 5.31357 0.964201C5.66912 0.714423 6.05801 0.589312 6.48024 0.588867C6.92468 0.588867 7.32202 0.713978 7.67224 0.964201C8.02246 1.21442 8.25846 1.53376 8.38024 1.9222H11.1469C11.5136 1.9222 11.8276 2.05287 12.0889 2.3142C12.3502 2.57553 12.4807 2.88931 12.4802 3.25553V7.4222C12.2802 7.27776 12.0691 7.15553 11.8469 7.05553C11.6247 6.95553 11.3914 6.86665 11.1469 6.78887V3.25553H9.81358V5.25553H3.1469V3.25553H1.81356V12.5889H5.3469C5.42468 12.8333 5.51357 13.0666 5.61357 13.2889C5.71357 13.5111 5.83579 13.7222 5.98024 13.9222H1.81356ZM6.48024 3.25553C6.66913 3.25553 6.82757 3.19153 6.95557 3.06353C7.08357 2.93553 7.14735 2.77731 7.1469 2.58887C7.1469 2.39998 7.0829 2.24176 6.9549 2.1142C6.8269 1.98665 6.66868 1.92265 6.48024 1.9222C6.29135 1.9222 6.13312 1.9862 6.00557 2.1142C5.87801 2.2422 5.81401 2.40042 5.81357 2.58887C5.81357 2.77776 5.87757 2.9362 6.00557 3.0642C6.13357 3.1922 6.29179 3.25598 6.48024 3.25553Z" fill="#5C5C5A"/>
</svg>
