<svg width="16" height="16" viewBox="0 0 16 16" fill="none" xmlns="http://www.w3.org/2000/svg">
<path d="M4.25098 3.92383V2.42383C4.25098 2.01133 4.39798 1.65833 4.69198 1.36483C4.98598 1.07133 5.33898 0.924328 5.75098 0.923828H10.251C10.6635 0.923828 11.0167 1.07083 11.3107 1.36483C11.6047 1.65883 11.7515 2.01183 11.751 2.42383V3.92383H14.001C14.4135 3.92383 14.7667 4.07083 15.0607 4.36483C15.3547 4.65883 15.5015 5.01183 15.501 5.42383V13.6738C15.501 14.0863 15.3542 14.4396 15.0607 14.7336C14.7672 15.0276 14.414 15.1743 14.001 15.1738H2.00098C1.58848 15.1738 1.23548 15.0271 0.941977 14.7336C0.648477 14.4401 0.501477 14.0868 0.500977 13.6738V5.42383C0.500977 5.01133 0.647977 4.65833 0.941977 4.36483C1.23598 4.07133 1.58898 3.92433 2.00098 3.92383H4.25098ZM5.75098 3.92383H10.251V2.42383H5.75098V3.92383ZM2.00098 12.1738H14.001V9.92383H2.00098V12.1738Z" fill="#858583"/>
</svg>
