<svg width="17" height="15" viewBox="0 0 17 15" fill="none" xmlns="http://www.w3.org/2000/svg">
<path d="M3.4834 15V13H10.5834C11.6334 13 12.5461 12.6667 13.3214 12C14.0967 11.3333 14.4841 10.5 14.4834 9.5C14.4834 8.5 14.0961 7.66667 13.3214 7C12.5467 6.33333 11.6341 6 10.5834 6H4.2834L6.8834 8.6L5.4834 10L0.483398 5L5.4834 0L6.8834 1.4L4.2834 4H10.5834C12.2001 4 13.5877 4.525 14.7464 5.575C15.9051 6.625 16.4841 7.93333 16.4834 9.5C16.4834 11.0667 15.9044 12.375 14.7464 13.425C13.5884 14.475 12.2007 15 10.5834 15H3.4834Z" fill="currentColor"/>
</svg>
