<svg width="14" height="13" viewBox="0 0 14 13" fill="none" xmlns="http://www.w3.org/2000/svg">
<path d="M13.751 6.03132C13.751 9.2933 10.7287 11.9376 7.00094 11.9376C6.33238 11.9385 5.6666 11.8517 5.02063 11.6795C4.52788 11.9292 3.39639 12.4085 1.49287 12.7207C1.32412 12.7477 1.19587 12.5722 1.26252 12.4152C1.56121 11.7098 1.83122 10.7699 1.91222 9.91262C0.878612 8.8748 0.250854 7.51634 0.250854 6.03132C0.250854 2.76935 3.2732 0.125 7.00094 0.125C10.7287 0.125 13.751 2.76935 13.751 6.03132ZM4.46966 6.03132C4.46966 5.80754 4.38076 5.59293 4.22252 5.43469C4.06429 5.27646 3.84967 5.18756 3.6259 5.18756C3.40212 5.18756 3.1875 5.27646 3.02927 5.43469C2.87103 5.59293 2.78214 5.80754 2.78214 6.03132C2.78214 6.2551 2.87103 6.46972 3.02927 6.62795C3.1875 6.78619 3.40212 6.87508 3.6259 6.87508C3.84967 6.87508 4.06429 6.78619 4.22252 6.62795C4.38076 6.46972 4.46966 6.2551 4.46966 6.03132ZM7.8447 6.03132C7.8447 5.80754 7.7558 5.59293 7.59756 5.43469C7.43933 5.27646 7.22472 5.18756 7.00094 5.18756C6.77716 5.18756 6.56254 5.27646 6.40431 5.43469C6.24607 5.59293 6.15718 5.80754 6.15718 6.03132C6.15718 6.2551 6.24607 6.46972 6.40431 6.62795C6.56254 6.78619 6.77716 6.87508 7.00094 6.87508C7.22472 6.87508 7.43933 6.78619 7.59756 6.62795C7.7558 6.46972 7.8447 6.2551 7.8447 6.03132ZM10.376 6.87508C10.5998 6.87508 10.8144 6.78619 10.9726 6.62795C11.1308 6.46972 11.2197 6.2551 11.2197 6.03132C11.2197 5.80754 11.1308 5.59293 10.9726 5.43469C10.8144 5.27646 10.5998 5.18756 10.376 5.18756C10.1522 5.18756 9.93759 5.27646 9.77935 5.43469C9.62111 5.59293 9.53222 5.80754 9.53222 6.03132C9.53222 6.2551 9.62111 6.46972 9.77935 6.62795C9.93759 6.78619 10.1522 6.87508 10.376 6.87508Z" fill="#858583"/>
</svg>
