<svg width="18" height="16" viewBox="0 0 18 16" fill="none" xmlns="http://www.w3.org/2000/svg">
<path fill-rule="evenodd" clip-rule="evenodd" d="M0.938477 15.1748C0.938477 14.8641 1.19032 14.6123 1.50098 14.6123H16.501C16.8116 14.6123 17.0635 14.8641 17.0635 15.1748C17.0635 15.4855 16.8116 15.7373 16.501 15.7373H1.50098C1.19032 15.7373 0.938477 15.4855 0.938477 15.1748Z" fill="#858583"/>
<path fill-rule="evenodd" clip-rule="evenodd" d="M3.75098 8.2373C3.64742 8.2373 3.56348 8.32125 3.56348 8.4248V14.4248C3.56348 14.5284 3.64742 14.6123 3.75098 14.6123H6.75098C6.85453 14.6123 6.93848 14.5284 6.93848 14.4248V8.4248C6.93848 8.32125 6.85453 8.2373 6.75098 8.2373H3.75098ZM2.43848 8.4248C2.43848 7.69993 3.0261 7.1123 3.75098 7.1123H6.75098C7.47585 7.1123 8.06348 7.69993 8.06348 8.4248V14.4248C8.06348 15.1497 7.47585 15.7373 6.75098 15.7373H3.75098C3.0261 15.7373 2.43848 15.1497 2.43848 14.4248V8.4248Z" fill="#858583"/>
<path fill-rule="evenodd" clip-rule="evenodd" d="M8.25098 1.4873C8.14742 1.4873 8.06348 1.57125 8.06348 1.6748V14.4248C8.06348 14.5284 8.14742 14.6123 8.25098 14.6123H14.251C14.3545 14.6123 14.4385 14.5284 14.4385 14.4248V1.6748C14.4385 1.57125 14.3545 1.4873 14.251 1.4873H8.25098ZM6.93848 1.6748C6.93848 0.949931 7.5261 0.362305 8.25098 0.362305H14.251C14.9759 0.362305 15.5635 0.949931 15.5635 1.6748V14.4248C15.5635 15.1497 14.9759 15.7373 14.251 15.7373H8.25098C7.5261 15.7373 6.93848 15.1497 6.93848 14.4248V1.6748Z" fill="#858583"/>
<path fill-rule="evenodd" clip-rule="evenodd" d="M9.93848 11.4279C9.93848 11.1173 10.1903 10.8654 10.501 10.8654H12.001C12.3116 10.8654 12.5635 11.1173 12.5635 11.4279C12.5635 11.7386 12.3116 11.9904 12.001 11.9904H10.501C10.1903 11.9904 9.93848 11.7386 9.93848 11.4279Z" fill="#858583"/>
<path fill-rule="evenodd" clip-rule="evenodd" d="M3.93848 11.4279C3.93848 11.1173 4.19032 10.8654 4.50098 10.8654H6.00098C6.31164 10.8654 6.56348 11.1173 6.56348 11.4279C6.56348 11.7386 6.31164 11.9904 6.00098 11.9904H4.50098C4.19032 11.9904 3.93848 11.7386 3.93848 11.4279Z" fill="#858583"/>
<path fill-rule="evenodd" clip-rule="evenodd" d="M9.93848 8.05292C9.93848 7.74226 10.1903 7.49042 10.501 7.49042H12.001C12.3116 7.49042 12.5635 7.74226 12.5635 8.05292C12.5635 8.36358 12.3116 8.61542 12.001 8.61542H10.501C10.1903 8.61542 9.93848 8.36358 9.93848 8.05292Z" fill="#858583"/>
<path fill-rule="evenodd" clip-rule="evenodd" d="M9.93848 4.67792C9.93848 4.36726 10.1903 4.11542 10.501 4.11542H12.001C12.3116 4.11542 12.5635 4.36726 12.5635 4.67792C12.5635 4.98858 12.3116 5.24042 12.001 5.24042H10.501C10.1903 5.24042 9.93848 4.98858 9.93848 4.67792Z" fill="#858583"/>
<path d="M6.93848 14.4248C6.93848 14.5284 6.85453 14.6123 6.75098 14.6123H3.75098C3.64742 14.6123 3.56348 14.5284 3.56348 14.4248V8.4248C3.56348 8.32125 3.64742 8.2373 3.75098 8.2373H6.75098C6.85453 8.2373 6.93848 8.32125 6.93848 8.4248V14.4248ZM6.93848 14.4248C6.93848 15.1497 7.5261 15.7373 8.25098 15.7373H14.251C14.9759 15.7373 15.5635 15.1497 15.5635 14.4248V1.6748C15.5635 0.949931 14.9759 0.362305 14.251 0.362305H8.25098C7.5261 0.362305 6.93848 0.949931 6.93848 1.6748V14.4248ZM8.06348 14.4248V8.4248C8.06348 7.69993 7.47585 7.1123 6.75098 7.1123H3.75098C3.0261 7.1123 2.43848 7.69993 2.43848 8.4248V14.4248C2.43848 15.1497 3.0261 15.7373 3.75098 15.7373H6.75098C7.47585 15.7373 8.06348 15.1497 8.06348 14.4248ZM8.06348 14.4248V1.6748C8.06348 1.57125 8.14742 1.4873 8.25098 1.4873H14.251C14.3545 1.4873 14.4385 1.57125 14.4385 1.6748V14.4248C14.4385 14.5284 14.3545 14.6123 14.251 14.6123H8.25098C8.14742 14.6123 8.06348 14.5284 8.06348 14.4248ZM1.50098 14.6123C1.19032 14.6123 0.938477 14.8641 0.938477 15.1748C0.938477 15.4855 1.19032 15.7373 1.50098 15.7373H16.501C16.8116 15.7373 17.0635 15.4855 17.0635 15.1748C17.0635 14.8641 16.8116 14.6123 16.501 14.6123H1.50098ZM10.501 10.8654C10.1903 10.8654 9.93848 11.1173 9.93848 11.4279C9.93848 11.7386 10.1903 11.9904 10.501 11.9904H12.001C12.3116 11.9904 12.5635 11.7386 12.5635 11.4279C12.5635 11.1173 12.3116 10.8654 12.001 10.8654H10.501ZM4.50098 10.8654C4.19032 10.8654 3.93848 11.1173 3.93848 11.4279C3.93848 11.7386 4.19032 11.9904 4.50098 11.9904H6.00098C6.31164 11.9904 6.56348 11.7386 6.56348 11.4279C6.56348 11.1173 6.31164 10.8654 6.00098 10.8654H4.50098ZM10.501 7.49042C10.1903 7.49042 9.93848 7.74226 9.93848 8.05292C9.93848 8.36358 10.1903 8.61542 10.501 8.61542H12.001C12.3116 8.61542 12.5635 8.36358 12.5635 8.05292C12.5635 7.74226 12.3116 7.49042 12.001 7.49042H10.501ZM10.501 4.11542C10.1903 4.11542 9.93848 4.36726 9.93848 4.67792C9.93848 4.98858 10.1903 5.24042 10.501 5.24042H12.001C12.3116 5.24042 12.5635 4.98858 12.5635 4.67792C12.5635 4.36726 12.3116 4.11542 12.001 4.11542H10.501Z" stroke="#858583" stroke-width="0.4" stroke-linecap="round" stroke-linejoin="round"/>
</svg>
