<svg width="15" height="14" viewBox="0 0 15 14" fill="none" xmlns="http://www.w3.org/2000/svg">
<path d="M2.48991 6.50879C2.02324 6.50879 1.6288 6.34768 1.30658 6.02546C0.984354 5.70323 0.823242 5.30879 0.823242 4.84212C0.823242 4.37546 0.984354 3.98101 1.30658 3.65879C1.6288 3.33657 2.02324 3.17546 2.48991 3.17546C2.95658 3.17546 3.35103 3.33657 3.67325 3.65879C3.99547 3.98101 4.15658 4.37546 4.15658 4.84212C4.15658 5.30879 3.99547 5.70323 3.67325 6.02546C3.35103 6.34768 2.95658 6.50879 2.48991 6.50879ZM5.48992 3.84212C5.02325 3.84212 4.62881 3.68101 4.30658 3.35879C3.98436 3.03657 3.82325 2.64212 3.82325 2.17546C3.82325 1.70879 3.98436 1.31434 4.30658 0.992122C4.62881 0.6699 5.02325 0.508789 5.48992 0.508789C5.95659 0.508789 6.35103 0.6699 6.67325 0.992122C6.99548 1.31434 7.15659 1.70879 7.15659 2.17546C7.15659 2.64212 6.99548 3.03657 6.67325 3.35879C6.35103 3.68101 5.95659 3.84212 5.48992 3.84212ZM9.48993 3.84212C9.02326 3.84212 8.62882 3.68101 8.30659 3.35879C7.98437 3.03657 7.82326 2.64212 7.82326 2.17546C7.82326 1.70879 7.98437 1.31434 8.30659 0.992122C8.62882 0.6699 9.02326 0.508789 9.48993 0.508789C9.9566 0.508789 10.351 0.6699 10.6733 0.992122C10.9955 1.31434 11.1566 1.70879 11.1566 2.17546C11.1566 2.64212 10.9955 3.03657 10.6733 3.35879C10.351 3.68101 9.9566 3.84212 9.48993 3.84212ZM12.4899 6.50879C12.0233 6.50879 11.6288 6.34768 11.3066 6.02546C10.9844 5.70323 10.8233 5.30879 10.8233 4.84212C10.8233 4.37546 10.9844 3.98101 11.3066 3.65879C11.6288 3.33657 12.0233 3.17546 12.4899 3.17546C12.9566 3.17546 13.351 3.33657 13.6733 3.65879C13.9955 3.98101 14.1566 4.37546 14.1566 4.84212C14.1566 5.30879 13.9955 5.70323 13.6733 6.02546C13.351 6.34768 12.9566 6.50879 12.4899 6.50879ZM3.92325 13.1755C3.42325 13.1755 3.00369 12.9839 2.66458 12.6008C2.32547 12.2177 2.15613 11.7648 2.15658 11.2421C2.15658 10.6643 2.35391 10.1588 2.74858 9.72546C3.14325 9.29212 3.5348 8.86435 3.92325 8.44212C4.24547 8.09768 4.52325 7.72279 4.75658 7.31746C4.98992 6.91212 5.2677 6.53146 5.58992 6.17546C5.83436 5.88657 6.1177 5.64768 6.43992 5.45879C6.76214 5.2699 7.11215 5.17546 7.48992 5.17546C7.8677 5.17546 8.2177 5.26435 8.53993 5.44212C8.86215 5.6199 9.14548 5.85323 9.38993 6.14212C9.70104 6.49768 9.97615 6.88101 10.2153 7.29212C10.4544 7.70324 10.7348 8.08657 11.0566 8.44212C11.4455 8.86435 11.837 9.29212 12.2313 9.72546C12.6255 10.1588 12.8228 10.6643 12.8233 11.2421C12.8233 11.7643 12.6537 12.2172 12.3146 12.6008C11.9755 12.9843 11.5562 13.1759 11.0566 13.1755C10.4566 13.1755 9.86215 13.1255 9.27326 13.0255C8.68437 12.9255 8.08993 12.8755 7.48992 12.8755C6.88992 12.8755 6.29548 12.9255 5.70659 13.0255C5.1177 13.1255 4.52325 13.1755 3.92325 13.1755Z" fill="#5C5C5A"/>
</svg>
