<svg width="40" height="40" viewBox="0 0 40 40" fill="none" xmlns="http://www.w3.org/2000/svg">
<circle cx="20" cy="19.9248" r="18" stroke="#D6D6D6" stroke-width="3"/>
<path d="M26.4131 27.3804C24.5707 27.3023 22.1238 26.2957 20.0095 24.8467C19.9603 24.8814 19.9082 24.9161 19.8562 24.9508C17.7043 26.3941 15.3615 27.3023 13.5913 27.3804L13.4901 25.1041C14.7656 25.0462 16.5242 24.3492 18.1323 23.3513C16.9465 22.2493 16.0325 21.023 15.6536 19.8111C15.1272 18.1248 15.6276 16.6006 17.0622 15.5159C18.8265 14.1826 21.2647 14.2057 22.9886 15.5709C24.3856 16.6758 24.8542 18.2087 24.3133 19.8863C23.9488 21.0143 23.0985 22.2146 21.8895 23.3484C23.5034 24.3521 25.2562 25.0549 26.5057 25.107L26.4102 27.3832L26.4131 27.3804ZM19.9979 16.8175C19.4455 16.8175 18.893 16.9881 18.436 17.3352C17.7737 17.8356 17.5915 18.3736 17.8286 19.1343C18.1179 20.0656 18.9451 21.0664 20.0153 21.9803C21.0507 21.0866 21.8519 20.1061 22.1498 19.1863C22.3985 18.417 22.2279 17.8703 21.58 17.3584C21.1259 16.9997 20.5648 16.8204 20.0008 16.8204L19.9979 16.8175Z" fill="#D6D6D6"/>
<path d="M13.4921 16.1169C14.5 16.1169 15.3171 15.2998 15.3171 14.2919C15.3171 13.2839 14.5 12.4668 13.4921 12.4668C12.4841 12.4668 11.667 13.2839 11.667 14.2919C11.667 15.2998 12.4841 16.1169 13.4921 16.1169Z" fill="#D6D6D6"/>
<path d="M26.5129 16.1169C27.5209 16.1169 28.338 15.2998 28.338 14.2919C28.338 13.2839 27.5209 12.4668 26.5129 12.4668C25.505 12.4668 24.6879 13.2839 24.6879 14.2919C24.6879 15.2998 25.505 16.1169 26.5129 16.1169Z" fill="#D6D6D6"/>
</svg>
