<svg width="26" height="27" viewBox="0 0 26 27" fill="none" xmlns="http://www.w3.org/2000/svg">
<path d="M4.50146 20.5101H21.5015L16.189 13.4268L11.939 19.0934L8.75146 14.8434L4.50146 20.5101ZM0.251465 26.1768V0.676758H25.7515V26.1768H0.251465ZM8.04313 10.5934C8.63341 10.5934 9.13538 10.3866 9.54905 9.97292C9.96271 9.55926 10.1691 9.05776 10.1681 8.46842C10.1681 7.87815 9.9613 7.37617 9.54763 6.96251C9.13396 6.54884 8.63246 6.34248 8.04313 6.34342C7.45285 6.34342 6.95088 6.55026 6.53721 6.96392C6.12355 7.37759 5.91719 7.87909 5.91813 8.46842C5.91813 9.0587 6.12496 9.56067 6.53863 9.97434C6.9523 10.388 7.4538 10.5944 8.04313 10.5934Z" fill="#D6D6D6"/>
</svg>
