<svg width="242" height="37" viewBox="0 0 242 37" fill="none" xmlns="http://www.w3.org/2000/svg">
<g clip-path="url(#clip0_8621_26772)">
<path d="M72.0824 36.5801C68.8705 32.408 65.4297 27.5156 62.5972 23.3027C61.0862 23.3027 59.248 23.3027 57.8808 23.2619C57.8808 29.1328 57.8808 34.6231 57.835 35.6016C55.7614 35.8598 52.3598 35.8598 49.9068 35.6016C49.7628 30.9606 49.8152 4.62315 49.9068 1.08974C54.1522 1.0082 61.6095 0.960635 65.6194 1.08974C73.829 1.34795 77.4203 5.73074 77.4203 11.9822C77.4203 17.2619 75.1046 20.6186 70.9573 22.1951C73.7897 26.0275 77.0474 30.6209 78.5585 32.9584C76.9035 34.3649 74.3131 35.8123 72.0955 36.5733L72.0824 36.5801ZM64.4812 16.494C68.0201 16.4125 69.4396 14.8768 69.4396 12.2811C69.4396 9.38646 68.0267 8.06822 64.3896 7.89835C62.6888 7.81681 59.6209 7.81681 57.8285 7.89835C57.8743 8.74772 57.8743 12.2404 57.8743 16.5348C60.0003 16.5756 62.0739 16.5756 64.4812 16.494Z" fill="#D6D6D6"/>
<path d="M107.332 35.6029C103.557 35.6912 86.6149 35.6912 82.5068 35.6029C82.5068 23.134 82.5068 13.7705 82.5526 1.09097C86.5168 0.961864 103.505 0.961864 107.044 1.09097C107.234 3.38769 107.234 5.60286 107.044 7.77047C105.768 7.89958 92.6985 7.81124 90.8538 7.77047C90.8996 9.04794 90.8996 11.7252 90.9454 14.7897C95.9954 14.7014 103.878 14.7014 105.101 14.8781C105.291 17.1748 105.291 19.3492 105.101 21.5576C103.871 21.6867 96.0412 21.7274 90.893 21.6459C90.893 25.091 90.8472 28.074 90.8472 29.0525C92.9732 28.9709 106.089 28.9709 107.319 29.0525C107.508 31.1793 107.508 33.3537 107.319 35.6029H107.332Z" fill="#D6D6D6"/>
<path d="M139.89 26.1978C139.89 32.157 135.691 35.3439 128.423 35.6021C124.695 35.7312 115.635 35.7312 111.998 35.6021C111.854 28.7935 111.906 8.49674 111.998 1.09017C114.451 0.961068 124.505 0.920298 127.854 1.09017C132.76 1.34838 137.908 3.72664 137.908 9.89651C137.908 13.6406 136.633 16.1072 133.329 17.6428C138 19.0902 139.89 21.7674 139.89 26.1978ZM119.788 7.64736C119.834 10.3722 119.834 12.798 119.834 15.0539C121.725 15.0947 123.092 15.0539 124.793 15.0132C128.142 14.8841 130.032 13.9939 130.032 11.3982C130.032 9.1015 128.803 7.78326 125.689 7.65416C123.426 7.57262 121.443 7.57262 119.788 7.65416V7.64736ZM131.916 25.1785C131.916 22.542 130.687 21.4752 126.821 21.3461C125.166 21.2578 122.34 21.2578 119.834 21.3053C119.834 23.7312 119.834 26.1978 119.788 28.9633C121.535 29.0449 125.826 29.0449 127.337 28.9633C130.451 28.7935 131.916 27.6451 131.916 25.1785Z" fill="#D6D6D6"/>
<path d="M142.581 18.4102C142.581 5.85981 148.383 0.580078 159.098 0.580078C169.813 0.580078 175.57 5.85301 175.57 18.4102C175.57 30.9674 169.342 36.2403 159.098 36.2403C148.854 36.2403 142.581 31.0489 142.581 18.4102ZM167.498 18.4102C167.498 11.092 165.424 7.34791 159.098 7.34791C153.388 7.34791 150.653 10.2834 150.653 18.4102C150.653 26.537 153.623 29.4725 159.098 29.4725C164.574 29.4725 167.498 26.9583 167.498 18.4102Z" fill="#D6D6D6"/>
<path d="M202.041 36.5801C198.83 32.408 195.389 27.5156 192.556 23.3027C191.045 23.3027 189.207 23.3027 187.84 23.2619C187.84 29.1328 187.84 34.6231 187.794 35.6016C185.72 35.8598 182.319 35.8598 179.866 35.6016C179.722 30.9606 179.774 4.62315 179.866 1.08974C184.111 1.0082 191.568 0.960635 195.578 1.08974C203.788 1.34795 207.379 5.73074 207.379 11.9822C207.379 17.2619 205.064 20.6186 200.916 22.1951C203.749 26.0275 207.006 30.6209 208.517 32.9584C206.862 34.3649 204.272 35.8123 202.054 36.5733L202.041 36.5801ZM194.44 16.494C197.979 16.4125 199.399 14.8768 199.399 12.2811C199.399 9.38646 197.986 8.06822 194.349 7.89835C192.648 7.81681 189.58 7.81681 187.787 7.89835C187.833 8.74772 187.833 12.2404 187.833 16.5348C189.959 16.5756 192.033 16.5756 194.44 16.494Z" fill="#D6D6D6"/>
<path d="M212.519 1.09142C214.691 0.792442 218.419 0.792442 219.786 1.09142C223.325 5.73242 231.535 17.8547 233.661 21.4765C233.517 18.7109 233.517 4.49573 233.661 1.09142C236.16 0.833212 239.843 0.833212 241.543 1.09142C241.635 8.87851 241.635 28.9646 241.543 35.6033C239.797 35.9431 237.108 35.9431 234.747 35.6033C231.914 31.9884 222.9 18.6701 220.401 14.4572C220.493 18.7109 220.545 33.096 220.401 35.6033C218.086 35.9023 215.024 35.8615 212.519 35.6033C212.427 28.3666 212.427 8.6271 212.519 1.09142Z" fill="#D6D6D6"/>
<path d="M34.0448 35.791C29.8778 35.6075 24.3437 33.2429 19.5619 29.8386C19.4507 29.9201 19.333 30.0016 19.2152 30.0832C14.3483 33.4739 9.04973 35.6075 5.04633 35.791L4.81738 30.4433C7.70218 30.3074 11.6794 28.6698 15.3165 26.3255C12.6345 23.7366 10.5674 20.8556 9.71042 18.0084C8.51987 14.0469 9.65154 10.466 12.8961 7.91784C16.8864 4.78534 22.4009 4.8397 26.2996 8.04695C29.4592 10.6426 30.5189 14.244 29.2956 18.1851C28.4714 20.8352 26.5482 23.6551 23.8139 26.3188C27.464 28.6766 31.4282 30.3278 34.2541 30.4501L34.0382 35.7978L34.0448 35.791ZM19.5357 10.9688C18.2863 10.9688 17.0369 11.3697 16.0033 12.1851C14.5053 13.3607 14.0932 14.6245 14.6296 16.4116C15.2838 18.5996 17.1546 20.9507 19.575 23.0979C21.9168 20.9983 23.7288 18.6947 24.4026 16.5339C24.9652 14.7265 24.5792 13.4422 23.1139 12.2395C22.0869 11.3969 20.8179 10.9756 19.5423 10.9756L19.5357 10.9688Z" fill="#D6D6D6"/>
<path d="M4.81811 9.33117C7.09776 9.33117 8.94579 7.41152 8.94579 5.04352C8.94579 2.67551 7.09776 0.755859 4.81811 0.755859C2.53846 0.755859 0.69043 2.67551 0.69043 5.04352C0.69043 7.41152 2.53846 9.33117 4.81811 9.33117Z" fill="#D6D6D6"/>
<path d="M34.2624 9.33117C36.5421 9.33117 38.3901 7.41152 38.3901 5.04352C38.3901 2.67551 36.5421 0.755859 34.2624 0.755859C31.9828 0.755859 30.1348 2.67551 30.1348 5.04352C30.1348 7.41152 31.9828 9.33117 34.2624 9.33117Z" fill="#D6D6D6"/>
</g>
<defs>
<clipPath id="clip0_8621_26772">
<rect width="240.923" height="36" fill="white" transform="translate(0.69043 0.580078)"/>
</clipPath>
</defs>
</svg>
