<svg width="11" height="14" viewBox="0 0 11 14" fill="none" xmlns="http://www.w3.org/2000/svg">
<path d="M3.47055 10.9245H7.47056C7.65945 10.9245 7.81789 10.8605 7.94589 10.7325C8.07389 10.6045 8.13767 10.4463 8.13723 10.2578C8.13723 10.0689 8.07323 9.9107 7.94522 9.78315C7.81722 9.65559 7.659 9.59159 7.47056 9.59115H3.47055C3.28166 9.59115 3.12344 9.65515 2.99588 9.78315C2.86832 9.91115 2.80432 10.0694 2.80388 10.2578C2.80388 10.4467 2.86788 10.6051 2.99588 10.7331C3.12388 10.8611 3.2821 10.9249 3.47055 10.9245ZM3.47055 8.25781H7.47056C7.65945 8.25781 7.81789 8.19381 7.94589 8.06581C8.07389 7.93781 8.13767 7.77959 8.13723 7.59115C8.13723 7.40226 8.07323 7.24404 7.94522 7.11648C7.81722 6.98892 7.659 6.92492 7.47056 6.92448H3.47055C3.28166 6.92448 3.12344 6.98848 2.99588 7.11648C2.86832 7.24448 2.80432 7.4027 2.80388 7.59115C2.80388 7.78004 2.86788 7.93848 2.99588 8.06648C3.12388 8.19448 3.2821 8.25826 3.47055 8.25781ZM1.47054 13.5911C1.10388 13.5911 0.790097 13.4607 0.529208 13.1998C0.268318 12.9389 0.137651 12.6249 0.137207 12.2578V1.59115C0.137207 1.22448 0.267874 0.910702 0.529208 0.649813C0.790542 0.388924 1.10432 0.258257 1.47054 0.257812H6.25389C6.43167 0.257812 6.60122 0.291146 6.76256 0.357813C6.92389 0.424479 7.06544 0.518924 7.18722 0.641146L10.4206 3.87448C10.5428 3.9967 10.6372 4.13848 10.7039 4.29981C10.7706 4.46115 10.8039 4.63048 10.8039 4.80781V12.2578C10.8039 12.6245 10.6735 12.9385 10.4126 13.1998C10.1517 13.4611 9.83767 13.5916 9.47056 13.5911H1.47054ZM6.13722 4.25781V1.59115H1.47054V12.2578H9.47056V4.92448H6.80389C6.615 4.92448 6.45678 4.86048 6.32922 4.73248C6.20167 4.60448 6.13767 4.44626 6.13722 4.25781Z" fill="#5C5C5A"/>
</svg>
