<svg width="47" height="65" viewBox="0 0 47 65" fill="none" xmlns="http://www.w3.org/2000/svg">
<rect width="46" height="63.458" transform="translate(0.399414 0.851562)" fill="#F7F7F7"/>
<g style="mix-blend-mode:luminosity" opacity="0.4" clip-path="url(#clip0_8621_26748)">
<path d="M29.65 31.6561C37.6841 31.5333 44.2414 37.8567 44.397 45.8902C44.4198 47.0697 44.3019 48.2177 44.0591 49.3189C43.6478 51.1835 43.4033 53.0809 43.4033 54.9904V58.6812C43.4033 59.2467 42.9449 59.7051 42.3794 59.7051H38.6886C36.7792 59.7051 34.8817 59.9495 33.0172 60.3608C31.916 60.6037 30.768 60.7216 29.5885 60.6987C21.5551 60.5433 15.2317 53.9861 15.3543 45.9522C15.4738 38.1104 21.8083 31.7758 29.65 31.6561Z" fill="#D6D6D6"/>
<path d="M18.3688 18.4025C8.58102 18.253 0.592374 25.9565 0.402796 35.7436C0.375039 37.1804 0.51864 38.5792 0.814608 39.9206C1.31562 42.1921 1.61348 44.5038 1.61348 46.83V51.3264C1.61348 52.0153 2.1719 52.5738 2.86086 52.5738H7.35728C9.68343 52.5738 11.9951 52.8717 14.2666 53.3727C15.6081 53.6685 17.0068 53.8122 18.4436 53.7844C28.2305 53.5949 35.934 45.6065 35.7848 35.8189C35.6391 26.2655 27.9221 18.5484 18.3688 18.4025Z" fill="#ADADAD"/>
<path d="M9.76504 39.7615C11.2786 39.7615 12.5057 38.5345 12.5057 37.0209C12.5057 35.5073 11.2786 34.2803 9.76504 34.2803C8.25143 34.2803 7.02441 35.5073 7.02441 37.0209C7.02441 38.5345 8.25143 39.7615 9.76504 39.7615Z" fill="white"/>
<path d="M17.516 39.7615C19.0296 39.7615 20.2566 38.5345 20.2566 37.0209C20.2566 35.5073 19.0296 34.2803 17.516 34.2803C16.0024 34.2803 14.7754 35.5073 14.7754 37.0209C14.7754 38.5345 16.0024 39.7615 17.516 39.7615Z" fill="white"/>
<path d="M25.267 39.7615C26.7806 39.7615 28.0076 38.5345 28.0076 37.0209C28.0076 35.5073 26.7806 34.2803 25.267 34.2803C23.7534 34.2803 22.5264 35.5073 22.5264 37.0209C22.5264 38.5345 23.7534 39.7615 25.267 39.7615Z" fill="white"/>
</g>
<path d="M21.3203 0.851562H24.6749V7.56069H21.3203V0.851562Z" fill="#D6D6D6"/>
<path d="M8.7627 7.44336L11.1344 5.07168L15.8777 9.81503L13.506 12.1867L8.7627 7.44336Z" fill="#D6D6D6"/>
<path d="M30.1094 9.81738L34.8527 5.07403L37.2244 7.44571L32.481 12.1891L30.1094 9.81738Z" fill="#D6D6D6"/>
<defs>
<clipPath id="clip0_8621_26748">
<rect width="44" height="44" fill="white" transform="translate(0.399414 17.5508)"/>
</clipPath>
</defs>
</svg>
