<svg width="40" height="39" viewBox="0 0 40 39" fill="none" xmlns="http://www.w3.org/2000/svg">
<circle cx="20.4834" cy="19.5" r="18" stroke="#F8CCB1" stroke-width="3"/>
<mask id="path-2-inside-1_8507_16597" fill="white">
<path d="M26.8967 26.9556C25.0542 26.8775 22.6073 25.8709 20.493 24.4218C20.4438 24.4566 20.3918 24.4913 20.3397 24.526C18.1878 25.9693 15.845 26.8775 14.0749 26.9556L13.9736 24.6793C15.2492 24.6214 17.0077 23.9244 18.6159 22.9265C17.43 21.8245 16.516 20.5982 16.1371 19.3863C15.6107 17.7 16.1111 16.1758 17.5457 15.0911C19.31 13.7578 21.7483 13.7809 23.4721 15.1461C24.8691 16.251 25.3377 17.7839 24.7968 19.4615C24.4324 20.5895 23.582 21.7898 22.373 22.9236C23.9869 23.9273 25.7397 24.6301 26.9892 24.6822L26.8938 26.9584L26.8967 26.9556ZM20.4814 16.3927C19.929 16.3927 19.3765 16.5633 18.9196 16.9104C18.2572 17.4108 18.075 17.9488 18.3122 18.7095C18.6014 19.6408 19.4286 20.6415 20.4988 21.5555C21.5342 20.6618 22.3354 19.6813 22.6333 18.7615C22.8821 17.9922 22.7114 17.4455 22.0635 16.9336C21.6094 16.5749 21.0483 16.3956 20.4843 16.3956L20.4814 16.3927Z"/>
</mask>
<path d="M26.8967 26.9556L29.0188 29.0761L33.8438 24.2473L27.0237 23.9582L26.8967 26.9556ZM20.493 24.4218L22.189 21.9473L20.4677 20.7676L18.7629 21.9709L20.493 24.4218ZM20.3397 24.526L18.6756 22.0298L18.6686 22.0345L20.3397 24.526ZM14.0749 26.9556L11.0778 27.0888L11.2111 30.0848L14.2071 29.9526L14.0749 26.9556ZM13.9736 24.6793L13.8377 21.6824L10.8434 21.8181L10.9766 24.8126L13.9736 24.6793ZM18.6159 22.9265L20.1976 25.4756L23.5366 23.4038L20.658 20.7289L18.6159 22.9265ZM16.1371 19.3863L13.2734 20.2803L13.2738 20.2815L16.1371 19.3863ZM17.5457 15.0911L15.7369 12.6977L15.7364 12.6981L17.5457 15.0911ZM23.4721 15.1461L21.6096 17.4979L21.6111 17.4991L23.4721 15.1461ZM24.7968 19.4615L27.6515 20.3838L27.6521 20.3821L24.7968 19.4615ZM22.373 22.9236L20.3208 20.7353L17.4709 23.408L20.7888 25.4712L22.373 22.9236ZM26.9892 24.6822L29.9866 24.8079L30.1123 21.8097L27.1141 21.6848L26.9892 24.6822ZM26.8938 26.9584L23.8964 26.8328L23.5738 34.5252L29.0159 29.079L26.8938 26.9584ZM20.4814 16.3927L22.6011 14.2698L21.7227 13.3927H20.4814V16.3927ZM18.9196 16.9104L20.7279 19.3041L20.734 19.2995L18.9196 16.9104ZM18.3122 18.7095L21.1772 17.8197L21.1762 17.8165L18.3122 18.7095ZM20.4988 21.5555L18.5505 23.8368L20.5091 25.5096L22.459 23.8266L20.4988 21.5555ZM22.6333 18.7615L25.4874 19.6859L25.4878 19.6844L22.6333 18.7615ZM22.0635 16.9336L23.9235 14.5797L23.923 14.5793L22.0635 16.9336ZM20.4843 16.3956L18.3646 18.5185L19.243 19.3956H20.4843V16.3956ZM27.0237 23.9582C25.9625 23.9133 24.0625 23.2313 22.189 21.9473L18.797 26.8964C21.1521 28.5106 24.1459 29.8417 26.7696 29.9529L27.0237 23.9582ZM18.7629 21.9709C18.7522 21.9786 18.7341 21.9909 18.6756 22.0298L22.0038 27.0221C22.0495 26.9917 22.1355 26.9346 22.223 26.8728L18.7629 21.9709ZM18.6686 22.0345C16.7757 23.3041 14.9658 23.9133 13.9426 23.9585L14.2071 29.9526C16.7241 29.8416 19.5999 28.6345 22.0107 27.0175L18.6686 22.0345ZM17.0719 26.8223L16.9707 24.546L10.9766 24.8126L11.0778 27.0888L17.0719 26.8223ZM14.1095 27.6762C16.1328 27.5844 18.4112 26.5841 20.1976 25.4756L17.0341 20.3774C15.6042 21.2646 14.3656 21.6584 13.8377 21.6824L14.1095 27.6762ZM20.658 20.7289C19.6668 19.8077 19.1617 19.0069 19.0004 18.4911L13.2738 20.2815C13.8703 22.1895 15.1932 23.8413 16.5737 25.1241L20.658 20.7289ZM19.0008 18.4923C18.8992 18.1668 18.9368 18.0085 18.9566 17.9482C18.9776 17.8841 19.0508 17.7141 19.3549 17.4842L15.7364 12.6981C14.606 13.5528 13.7117 14.6872 13.2555 16.078C12.798 17.4726 12.8486 18.9195 13.2734 20.2803L19.0008 18.4923ZM19.3545 17.4845C20.0365 16.9691 20.9651 16.9875 21.6096 17.4979L25.3346 12.7943C22.5315 10.5743 18.5836 10.5464 15.7369 12.6977L19.3545 17.4845ZM21.6111 17.4991C21.8993 17.727 21.9708 17.8962 21.993 17.9685C22.0147 18.0393 22.0484 18.2095 21.9415 18.5409L27.6521 20.3821C28.0861 19.0359 28.1559 17.6008 27.7294 16.2096C27.3032 14.8197 26.4419 13.67 25.3331 12.7931L21.6111 17.4991ZM21.9421 18.5392C21.7882 19.0155 21.3148 19.8032 20.3208 20.7353L24.4252 25.1119C25.8492 23.7765 27.0765 22.1635 27.6515 20.3838L21.9421 18.5392ZM20.7888 25.4712C22.5648 26.5756 24.8477 27.5955 26.8643 27.6796L27.1141 21.6848C26.6317 21.6647 25.4091 21.2789 23.9573 20.376L20.7888 25.4712ZM23.9918 24.5565L23.8964 26.8328L29.8911 27.0841L29.9866 24.8079L23.9918 24.5565ZM29.0159 29.079L29.0188 29.0761L24.7745 24.835L24.7716 24.8379L29.0159 29.079ZM20.4814 13.3927C19.3166 13.3927 18.1171 13.7527 17.1051 14.5214L20.734 19.2995C20.636 19.374 20.5414 19.3927 20.4814 19.3927V13.3927ZM17.1112 14.5167C16.4861 14.989 15.7913 15.7017 15.4364 16.752C15.0756 17.8199 15.205 18.8226 15.4481 19.6024L21.1762 17.8165C21.1821 17.8356 21.2841 18.189 21.1207 18.6726C20.9632 19.1387 20.6907 19.3323 20.7279 19.3041L17.1112 14.5167ZM15.4471 19.5992C15.9912 21.3512 17.3458 22.8079 18.5505 23.8368L22.4471 19.2743C22.0252 18.914 21.7001 18.5772 21.4742 18.2888C21.363 18.1469 21.2871 18.0311 21.2379 17.9439C21.1881 17.8556 21.1755 17.8144 21.1772 17.8197L15.4471 19.5992ZM22.459 23.8266C23.6425 22.805 24.9372 21.3845 25.4874 19.6859L19.7793 17.8371C19.7336 17.9781 19.426 18.5186 18.5386 19.2845L22.459 23.8266ZM25.4878 19.6844C25.7368 18.9143 25.8808 17.923 25.5487 16.858C25.2193 15.8017 24.5454 15.0711 23.9235 14.5797L20.2036 19.2874C20.2296 19.3079 19.9649 19.1067 19.8207 18.6441C19.6737 18.1727 19.7786 17.8394 19.7788 17.8386L25.4878 19.6844ZM23.923 14.5793C22.9037 13.7743 21.6763 13.3956 20.4843 13.3956V19.3956C20.4203 19.3956 20.3151 19.3755 20.2041 19.2878L23.923 14.5793ZM22.604 14.2726L22.6011 14.2698L18.3617 18.5156L18.3646 18.5185L22.604 14.2726Z" fill="#F8CCB1" mask="url(#path-2-inside-1_8507_16597)"/>
<path d="M13.9755 15.6921C14.9834 15.6921 15.8005 14.875 15.8005 13.8671C15.8005 12.8591 14.9834 12.042 13.9755 12.042C12.9675 12.042 12.1504 12.8591 12.1504 13.8671C12.1504 14.875 12.9675 15.6921 13.9755 15.6921Z" fill="#F8CCB1"/>
<path d="M26.9965 15.6921C28.0044 15.6921 28.8215 14.875 28.8215 13.8671C28.8215 12.8591 28.0044 12.042 26.9965 12.042C25.9885 12.042 25.1714 12.8591 25.1714 13.8671C25.1714 14.875 25.9885 15.6921 26.9965 15.6921Z" fill="#F8CCB1"/>
</svg>
