<svg width="15" height="14" viewBox="0 0 15 14" fill="none" xmlns="http://www.w3.org/2000/svg">
<path d="M5.49065 8.42448C5.25732 8.42448 5.05998 8.34381 4.89865 8.18248C4.73732 8.02115 4.65687 7.82404 4.65732 7.59115C4.65732 7.35781 4.73798 7.16048 4.89932 6.99915C5.06065 6.83781 5.25776 6.75737 5.49065 6.75781C5.72399 6.75781 5.92132 6.83848 6.08265 6.99981C6.24399 7.16115 6.32443 7.35826 6.32399 7.59115C6.32399 7.82448 6.24332 8.02181 6.08199 8.18315C5.92065 8.34448 5.72354 8.42492 5.49065 8.42448ZM9.49066 8.42448C9.25733 8.42448 9.05999 8.34381 8.89866 8.18248C8.73733 8.02115 8.65688 7.82404 8.65732 7.59115C8.65732 7.35781 8.73799 7.16048 8.89933 6.99915C9.06066 6.83781 9.25777 6.75737 9.49066 6.75781C9.72399 6.75781 9.92133 6.83848 10.0827 6.99981C10.244 7.16115 10.3244 7.35826 10.324 7.59115C10.324 7.82448 10.2433 8.02181 10.082 8.18315C9.92066 8.34448 9.72355 8.42492 9.49066 8.42448ZM7.49066 12.2578C8.97955 12.2578 10.2407 11.7411 11.274 10.7078C12.3073 9.67448 12.824 8.41337 12.824 6.92448C12.824 6.65781 12.8073 6.39959 12.774 6.14981C12.7407 5.90004 12.6796 5.65826 12.5907 5.42448C12.3573 5.48004 12.124 5.52181 11.8907 5.54981C11.6573 5.57781 11.4129 5.59159 11.1573 5.59115C10.1462 5.59115 9.19066 5.37448 8.29066 4.94115C7.39066 4.50781 6.62399 3.90226 5.99065 3.12448C5.6351 3.99115 5.12687 4.74404 4.46598 5.38315C3.80509 6.02226 3.03554 6.5027 2.15731 6.82448V6.92448C2.15731 8.41337 2.67398 9.67448 3.70731 10.7078C4.74065 11.7411 6.00176 12.2578 7.49066 12.2578ZM7.49066 13.5911C6.56843 13.5911 5.70176 13.4163 4.89065 13.0665C4.07954 12.7167 3.37398 12.2416 2.77398 11.6411C2.17398 11.0411 1.69909 10.3356 1.34931 9.52448C0.999531 8.71337 0.824419 7.8467 0.823975 6.92448C0.823975 6.00226 0.999086 5.13559 1.34931 4.32448C1.69953 3.51337 2.17442 2.80781 2.77398 2.20781C3.37398 1.60781 4.07954 1.13292 4.89065 0.783146C5.70176 0.433368 6.56843 0.258257 7.49066 0.257812C8.41288 0.257812 9.27955 0.432924 10.0907 0.783146C10.9018 1.13337 11.6073 1.60826 12.2073 2.20781C12.8073 2.80781 13.2824 3.51337 13.6327 4.32448C13.9829 5.13559 14.1578 6.00226 14.1573 6.92448C14.1573 7.8467 13.9822 8.71337 13.632 9.52448C13.2818 10.3356 12.8069 11.0411 12.2073 11.6411C11.6073 12.2411 10.9018 12.7163 10.0907 13.0665C9.27955 13.4167 8.41288 13.5916 7.49066 13.5911Z" fill="#5C5C5A"/>
</svg>
