<svg width="14" height="16" viewBox="0 0 14 16" fill="none" xmlns="http://www.w3.org/2000/svg">
<path d="M1.75098 15.9248C1.33848 15.9248 0.985477 15.7781 0.691977 15.4846C0.398477 15.1911 0.251477 14.8378 0.250977 14.4248V3.9248C0.250977 3.5123 0.397977 3.1593 0.691977 2.8658C0.985977 2.5723 1.33898 2.4253 1.75098 2.4248H2.50098V0.924805H4.00098V2.4248H10.001V0.924805H11.501V2.4248H12.251C12.6635 2.4248 13.0167 2.5718 13.3107 2.8658C13.6047 3.1598 13.7515 3.5128 13.751 3.9248V14.4248C13.751 14.8373 13.6042 15.1906 13.3107 15.4846C13.0172 15.7786 12.664 15.9253 12.251 15.9248H1.75098ZM1.75098 14.4248H12.251V6.9248H1.75098V14.4248Z" fill="currentColor"/>
</svg>
