<svg width="19" height="19" viewBox="0 0 19 19" fill="none" xmlns="http://www.w3.org/2000/svg">
<path d="M17.099 18.4297L10.799 12.1297C10.299 12.5297 9.72402 12.8464 9.07402 13.0797C8.42402 13.313 7.73236 13.4297 6.99902 13.4297C5.18236 13.4297 3.64502 12.8004 2.38702 11.5417C1.12902 10.283 0.49969 8.74569 0.499023 6.92969C0.499023 5.11302 1.12836 3.57569 2.38702 2.31769C3.64569 1.05969 5.18302 0.430354 6.99902 0.429688C8.81569 0.429688 10.353 1.05902 11.611 2.31769C12.869 3.57635 13.4984 5.11369 13.499 6.92969C13.499 7.66302 13.3824 8.35469 13.149 9.00469C12.9157 9.65469 12.599 10.2297 12.199 10.7297L18.499 17.0297L17.099 18.4297ZM6.99902 11.4297C8.24902 11.4297 9.31169 10.992 10.187 10.1167C11.0624 9.24135 11.4997 8.17902 11.499 6.92969C11.499 5.67969 11.0614 4.61702 10.186 3.74169C9.31069 2.86635 8.24836 2.42902 6.99902 2.42969C5.74902 2.42969 4.68636 2.86735 3.81102 3.74269C2.93569 4.61802 2.49836 5.68035 2.49902 6.92969C2.49902 8.17969 2.93669 9.24235 3.81202 10.1177C4.68736 10.993 5.74969 11.4304 6.99902 11.4297Z" fill="currentColor"/>
</svg>
